<svg xmlns="http://www.w3.org/2000/svg" viewBox="0 0 86.74 237.87"><defs><style>.cls-1{fill:#1cdfed;}</style></defs><title>Zasób 10</title><g id="Warstwa_2" data-name="Warstwa 2"><g id="Layer_1" data-name="Layer 1"><polygon class="cls-1" points="86.32 47.12 57.03 47.12 44.95 47.12 15.66 47.12 15.24 75.24 36.77 96.77 36.77 237.87 44.95 237.87 57.03 237.87 65.22 237.87 65.22 96.77 86.74 75.24 86.32 47.12"/><path class="cls-1" d="M15.66,47.12,0,43V30.81l15.24-3.38L83.14,0l2,3.8L15.24,32.08,6.95,32A5.21,5.21,0,0,0,1.69,37.2h0a5.21,5.21,0,0,0,4.39,5.14l9.82,1.56L20,47.12Z"/><polygon class="cls-1" points="28.42 26.75 70.74 9.64 71.75 21.1 35.45 35.03 28.42 26.75"/></g></g></svg>