<svg xmlns="http://www.w3.org/2000/svg" viewBox="0 0 155.55 277.12"><defs><style>.cls-1{fill:#ff5f36;}.cls-2{fill:#e7009b;}.cls-3{fill:#1740ff;}.cls-4,.cls-5,.cls-6{fill:none;stroke-miterlimit:10;stroke-width:2px;}.cls-4{stroke:#ff5f36;}.cls-5{stroke:#e7009b;}.cls-6{stroke:#1740ff;}</style></defs><title>Zasób 11</title><g id="Warstwa_2" data-name="Warstwa 2"><g id="Layer_1" data-name="Layer 1"><path class="cls-1" d="M87.72,227.93l7.35-6.6L79.58,207.4l15.36-13.8L87.59,187l7.34-6.6L80,167,94.6,153.92l-7.34-6.6,7.34-6.6L78.71,126.44l13-11.72a2.77,2.77,0,0,0,0-4.12h0a2.77,2.77,0,0,0-3.7,0L74.57,122.71l-3.2-2.88,20.38-18.32a2.77,2.77,0,0,0,0-4.12h0a2.77,2.77,0,0,0-3.7,0l-25,22.44,7.34,6.6L63.08,133,79,147.32,64.42,160.41l7.35,6.6-7.35,6.6L79.31,187,63.95,200.8l7.34,6.6L63.95,214l15.49,13.92-15.36,13.8,7.35,6.6-7.35,6.6L88,276.42a2.77,2.77,0,0,0,3.7,0h0a2.77,2.77,0,0,0,0-4.12L72.36,254.94l3.2-2.88L88,263.21a2.77,2.77,0,0,0,3.7,0h0a2.77,2.77,0,0,0,0-4.12l-12-10.76,15.36-13.8ZM83.11,143.6,71.36,133l3.2-2.88,11.75,10.56Zm0,7.44,3.2,2.88L75.9,163.29l-3.2-2.88ZM75.9,170.73l10.75,9.66-3.2,2.88L72.7,173.61Zm7.55,20,3.2,2.88L75.43,203.68l-3.2-2.88Zm-8,20.41,11.35,10.2-3.2,2.88L72.23,214Zm8.15,20.53,3.2,2.88L75.57,244.62l-3.2-2.88Z"/><path class="cls-2" d="M133.11,224.74h0a1.47,1.47,0,0,0,0-2.19l-20.38-18.32,5.14-4.62,13.27,11.93a1.47,1.47,0,0,0,2,0h0a1.47,1.47,0,0,0,0-2.19l-13-11.72,15.36-13.8-7.34-6.6,7.34-6.6-15.49-13.92,15.36-13.8-7.34-6.6,7.34-6.6-14.89-13.38L135,103.21l-7.34-6.6L135,90,119.07,75.72,133.18,63a1.47,1.47,0,0,0,0-2.19h0a1.47,1.47,0,0,0-2,0L116.87,73.74l-5.14-4.62,21.45-19.28a1.47,1.47,0,0,0,0-2.19h0a1.47,1.47,0,0,0-2,0L107.32,69.12l7.34,6.6-7.34,6.6,15.89,14.28-14.56,13.08,7.34,6.6-7.34,6.6,14.89,13.38-15.36,13.8,7.34,6.6-7.34,6.6,15.49,13.92L108.33,191l7.34,6.6-7.34,6.6,22.82,20.51A1.47,1.47,0,0,0,133.11,224.74ZM111.73,82.32l5.14-4.62L130.56,90l-5.14,4.62Zm1.34,27.37,12.35-11.1,5.14,4.62-12.35,11.1Zm0,13.2,5.14-4.62,12.69,11.4-5.14,4.62Zm-.47,27.19,13.15-11.82,5.14,4.62-13.15,11.82Zm0,13.2,5.14-4.62L131,170.61l-5.14,4.62Zm.13,27.73,13.15-11.82,5.14,4.62-13.15,11.82Z"/><path class="cls-3" d="M49.09,177.47h0a1.47,1.47,0,0,0,0-2.19L28.7,157l5.14-4.62,13.27,11.93a1.47,1.47,0,0,0,2,0h0a1.47,1.47,0,0,0,0-2.19L36,150.35l15.36-13.8-7.34-6.6,7.34-6.6L35.91,109.42l15.36-13.8L43.93,89l7.34-6.6L36.38,69,50.94,55.94l-7.34-6.6,7.34-6.6L35,28.45,49.15,15.77a1.47,1.47,0,0,0,0-2.19h0a1.47,1.47,0,0,0-2,0L32.84,26.47,27.7,21.85,49.15,2.57a1.47,1.47,0,0,0,0-2.19h0a1.47,1.47,0,0,0-2,0L23.3,21.85l7.34,6.6-7.34,6.6L39.19,49.34,24.63,62.42,32,69l-7.34,6.6L39.52,89l-15.36,13.8,7.34,6.6L24.16,116l15.49,13.92L24.3,143.75l7.34,6.6L24.3,157l22.82,20.51A1.47,1.47,0,0,0,49.09,177.47ZM27.7,35.05l5.14-4.62,13.69,12.3-5.14,4.62ZM29,62.42l12.35-11.1,5.14,4.62L34.18,67Zm0,13.2L34.18,71l12.69,11.4L41.73,87Zm-.47,27.19L41.73,91l5.14,4.62L33.71,107.44Zm0,13.2,5.14-4.62L47,123.34,41.86,128Zm.13,27.73,13.15-11.82L47,136.55,33.85,148.37Z"/><line class="cls-4" x1="60.11" y1="241.9" x2="42.32" y2="241.9"/><circle class="cls-1" cx="42.32" cy="241.9" r="5.14"/><line class="cls-4" x1="98.33" y1="234.71" x2="121.27" y2="234.71"/><circle class="cls-1" cx="121.27" cy="234.71" r="5.14"/><line class="cls-5" x1="138.08" y1="142.89" x2="149.54" y2="142.89"/><rect class="cls-2" x="145.3" y="138.64" width="8.5" height="8.5" transform="translate(144.84 -63.89) rotate(45)"/><line class="cls-6" x1="21.93" y1="75.74" x2="5.72" y2="75.74"/><polygon class="cls-3" points="7.84 71.21 2.62 71.21 0 75.74 2.62 80.27 7.84 80.27 10.46 75.74 7.84 71.21"/></g></g></svg>