<svg xmlns="http://www.w3.org/2000/svg" viewBox="0 0 163.4 185.24"><defs><style>.cls-1{fill:#1740ff;}.cls-2{fill:#1cdfed;}.cls-3{fill:#0e279c;}.cls-4{fill:none;}</style></defs><title>Zasób 13</title><g id="Warstwa_2" data-name="Warstwa 2"><g id="Layer_1" data-name="Layer 1"><path class="cls-1" d="M51.29,34.88a29.22,29.22,0,0,0,5.52-.51,252.51,252.51,0,0,0,1.59,41.74C52,62.3,50.22,34.64,51.29,34.88Z"/><path class="cls-1" d="M122.14,87.15l35.57-35.42a19,19,0,0,0,5.65-13.55l0-19.93a17.75,17.75,0,0,0-5.21-12.65,18,18,0,0,0-25.49-.1,17.75,17.75,0,0,0-5.26,12.63l0,8.17h0a7.09,7.09,0,0,0,7.1-7.07v-.81a11.13,11.13,0,0,1,2.7-7.38,10.92,10.92,0,0,1,15.9-.47,10.75,10.75,0,0,1,3.19,7.68l0,19.93a12,12,0,0,1-3.56,8.54L117.14,82.12Z"/><path class="cls-2" d="M41,87,5.59,51.4A19,19,0,0,1,0,37.83L0,17.9A17.75,17.75,0,0,1,5.31,5.27a18,18,0,0,1,25.49,0A17.75,17.75,0,0,1,36,17.93l0,8.17h0A7.09,7.09,0,0,1,28.91,19v-.81a11.13,11.13,0,0,0-2.66-7.39,10.92,10.92,0,0,0-15.9-.54,10.75,10.75,0,0,0-3.22,7.66l0,19.93a12,12,0,0,0,3.52,8.55L46,82Z"/><path class="cls-1" d="M110,111.85a63.24,63.24,0,0,0,19.4-45.29l.11-49.26-30.29-.07-17.72,0h-1l-22.52,0c-2.26,24-4.64,80.14,18.41,108.35a4.94,4.94,0,0,1,.08,6.18,6,6,0,0,0-.33,7L78,141.59a4.93,4.93,0,0,1,.74,3.3c-1,7.48-5.9,35.65-24.33,40.2l22.63,0,8.79,0,40.76.09V179l-27.23-17.1a16.81,16.81,0,0,1-7.87-14.27h0a12.69,12.69,0,0,1,4-9.21,4.3,4.3,0,0,0,.1-6.17l-3.28-3.3,3.87-3.75Z"/><path class="cls-2" d="M80.82,24.06C74.08,34.72,54,36.45,54,36.45c-.11,49.2,28.86,63.61,28.86,63.61s29-14.29,29.13-63.48c0,0-20.13-1.82-26.82-12.51A2.56,2.56,0,0,0,80.82,24.06Z"/><path class="cls-2" d="M57.94,17.14c-.44,4.66-.88,10.56-1.14,17.23a29.22,29.22,0,0,1-5.52.51c-1.06-.24.73,27.42,7.11,41.23,2.41,18.47,7.63,36.74,18,49.39a4.94,4.94,0,0,1,.08,6.18,6,6,0,0,0-.33,7L78,141.59a4.93,4.93,0,0,1,.74,3.3c-1,7.48-5.9,35.65-24.33,40.2l-18.13,0v-6.25l27.3-17a16.81,16.81,0,0,0,7.93-14.24h0a12.69,12.69,0,0,0-4-9.23,4.3,4.3,0,0,1-.07-6.17l3.3-3.28L53.19,111.72A63.24,63.24,0,0,1,34,66.35l.11-49.26Z"/><path class="cls-3" d="M89.89,54.35h0a18,18,0,0,1,1.64,1.74,9.41,9.41,0,0,1,.29,12.27,21.68,21.68,0,0,1-3.37,3.5C96.7,62.41,89.89,54.35,89.89,54.35Z"/><path class="cls-4" d="M88.68,58.29a10.08,10.08,0,0,1,1.21,1.9c.22.44.1.56-.38.57-2.32,0-4.63.1-7,.16h0c-2.37.06-4.75.1-7.12.18-.42,0-.48-.11-.34-.47a9.44,9.44,0,0,1,1.1-2,.58.58,0,0,1,.52-.26l11.42-.27A.6.6,0,0,1,88.68,58.29Z"/><path class="cls-4" d="M75.51,63.8c2.35,0,4.71-.1,7.06-.16h0l7.06-.17c.64,0,.64,0,.43.61a9.42,9.42,0,0,1-.76,1.57,1,1,0,0,1-1,.57c-3.39.06-6.79,0-10.17.28a2.44,2.44,0,0,1-2.79-1.78c-.06-.14-.12-.28-.18-.41C75,64,75,63.81,75.51,63.8Z"/><path class="cls-1" d="M70.67,40.64a9.69,9.69,0,0,0,2.13,4.92,21.9,21.9,0,0,0,4.07,3.83c.16.12.28.22.49.06.92-.71,1.86-1.4,2.82-2.13a28.79,28.79,0,0,1-3.51-2.87l10.78-.25c0,.22-.21.33-.35.46a51.67,51.67,0,0,1-5.78,4.63,46.49,46.49,0,0,0-6.94,5.79,11.44,11.44,0,0,0-3,5.53,9.29,9.29,0,0,0,1.86,7.56,21.66,21.66,0,0,0,4.39,4.22c.17.13.29.18.49,0,.91-.7,1.84-1.38,2.81-2.1l-1.5-1.14L86.11,69c-.1.26-.32.37-.49.52C83.41,71.38,81,73,78.76,74.73A24.3,24.3,0,0,0,73.42,80a9.52,9.52,0,0,0-1.72,4.78c0,.46.06.64.57.61.86-.06,1.73-.06,2.6-.07.32,0,.5-.08.49-.43a2.61,2.61,0,0,1,.05-.45c.2-1.43.4-1.6,1.82-1.64,4.11-.1,8.22-.18,12.34-.31a.81.81,0,0,1,.94.64,6,6,0,0,1,.33,1.2.61.61,0,0,0,.73.6c.69,0,1.37,0,2.06-.05a13.72,13.72,0,0,0-2.74-7.28,27.2,27.2,0,0,0-2.55-2.17c-.19-.14-.33-.25-.58-.06-.89.69-1.81,1.36-2.77,2.08a33.92,33.92,0,0,1,2.92,2.34L78.17,80a32.52,32.52,0,0,1,3.31-2.79c2.34-1.78,4.78-3.43,7-5.35,8.2-9.47,1.39-17.53,1.39-17.53h0a29.59,29.59,0,0,0-2.32-2c-.15-.11-.27-.25-.49-.08-.93.7-1.87,1.4-2.85,2.12l1.17.88a59.6,59.6,0,0,1-6.23.17c.55-.44,1-.84,1.53-1.23,2.43-1.89,5-3.58,7.34-5.58a26.1,26.1,0,0,0,2.23-2.11,36.85,36.85,0,0,0,2.53-7.17h-.06c-.75,0-1.51,0-2.26,0-.47,0-.66.23-.72.68-.18,1.25-.19,1.25-1.44,1.28-4.34.1-8.68.2-13,.32-.5,0-.73-.12-.86-.62-.34-1.27-.36-1.27-1.72-1.24l-1.47,0C70.78,39.92,70.62,40.17,70.67,40.64ZM75.51,63.8c2.35,0,4.71-.1,7.06-.16h0l7.06-.17c.64,0,.64,0,.43.61a9.42,9.42,0,0,1-.76,1.57,1,1,0,0,1-1,.57c-3.39.06-6.79,0-10.17.28a2.44,2.44,0,0,1-2.79-1.78c-.06-.14-.12-.28-.18-.41C75,64,75,63.81,75.51,63.8Zm1.21-5.46,11.42-.27a.6.6,0,0,1,.54.22,10.08,10.08,0,0,1,1.21,1.9c.22.44.1.56-.38.57-2.32,0-4.63.1-7,.16h0c-2.37.06-4.75.1-7.12.18-.42,0-.48-.11-.34-.47a9.44,9.44,0,0,1,1.1-2A.58.58,0,0,1,76.72,58.34Z"/><path class="cls-3" d="M93.43,40.11a8.56,8.56,0,0,1-1.13,3.76,14.15,14.15,0,0,1-2,2.71,36.85,36.85,0,0,0,2.53-7.17C93.33,39.42,93.46,39.58,93.43,40.11Z"/><path class="cls-3" d="M90.89,77.59c.39.38.77.77,1.12,1.18a9.88,9.88,0,0,1,2.48,5.36c.05.47-.1.72-.6.73h-.26A13.72,13.72,0,0,0,90.89,77.59Z"/></g></g></svg>