<svg xmlns="http://www.w3.org/2000/svg" viewBox="0 0 148.26 48.5"><defs><style>.cls-1{fill:#b3b3b3;}.cls-2{fill:#fff;}</style></defs><title>Zasób 3</title><g id="Warstwa_2" data-name="Warstwa 2"><g id="Layer_1" data-name="Layer 1"><rect class="cls-1" width="148.26" height="48.5" rx="6.55" ry="6.55"/><path class="cls-2" d="M47.62,13.73l-.66,2H46.1l2.17-6.4h1l2.18,6.4h-.88l-.68-2Zm2.1-.65-.64-1.84c-.13-.42-.23-.8-.32-1.17h0c-.09.37-.19.77-.31,1.16l-.63,1.85Z"/><path class="cls-2" d="M52.31,11.15l.9,2.57c.15.43.28.81.37,1.19h0c.1-.38.24-.76.39-1.19l.89-2.57h.87L54,15.74h-.8l-1.75-4.59Z"/><path class="cls-2" d="M59.61,14.64a7.68,7.68,0,0,0,.07,1.1h-.75l-.08-.58h0a1.7,1.7,0,0,1-1.41.68A1.31,1.31,0,0,1,56,14.53c0-1.11,1-1.72,2.76-1.71v-.1a.94.94,0,0,0-1-1.06,2.21,2.21,0,0,0-1.21.34l-.19-.56a3,3,0,0,1,1.52-.4c1.42,0,1.76,1,1.76,1.88Zm-.82-1.24c-.91,0-1.95.14-1.95,1a.73.73,0,0,0,.78.8,1.16,1.16,0,0,0,1.13-.77.87.87,0,0,0,0-.27Z"/><path class="cls-2" d="M61.3,10.3a.54.54,0,0,1,0-1.07.51.51,0,0,1,.53.53.52.52,0,0,1-.54.54Zm-.4,5.44V11.15h.84v4.59Z"/><path class="cls-2" d="M63.08,9h.84v6.74h-.84Z"/><path class="cls-2" d="M68.49,14.64a7.74,7.74,0,0,0,.07,1.1H67.8l-.08-.58h0a1.7,1.7,0,0,1-1.41.68,1.31,1.31,0,0,1-1.4-1.32c0-1.11,1-1.72,2.76-1.71v-.1a.94.94,0,0,0-1-1.06,2.21,2.21,0,0,0-1.2.34l-.19-.56a3,3,0,0,1,1.52-.4c1.41,0,1.76,1,1.76,1.88Zm-.82-1.24c-.91,0-1.95.14-1.95,1a.73.73,0,0,0,.78.8,1.16,1.16,0,0,0,1.13-.77.85.85,0,0,0,0-.27Z"/><path class="cls-2" d="M69.78,9h.84v2.88h0A1.7,1.7,0,0,1,72.2,11c1.14,0,1.94.95,1.94,2.34a2.19,2.19,0,0,1-2.07,2.47A1.65,1.65,0,0,1,70.53,15h0l0,.76h-.72c0-.31,0-.78,0-1.19Zm.84,4.9a1.51,1.51,0,0,0,0,.3,1.3,1.3,0,0,0,1.25,1c.88,0,1.4-.71,1.4-1.77s-.47-1.72-1.37-1.72a1.39,1.39,0,0,0-1.31,1.38Z"/><path class="cls-2" d="M75.13,9H76v6.74h-.84Z"/><path class="cls-2" d="M77.78,13.59a1.46,1.46,0,0,0,1.57,1.59A3.17,3.17,0,0,0,80.62,15l.15.59a3.74,3.74,0,0,1-1.54.29A2.14,2.14,0,0,1,77,13.52,2.24,2.24,0,0,1,79.14,11,1.94,1.94,0,0,1,81,13.2a2.15,2.15,0,0,1,0,.4Zm2.44-.6a1.19,1.19,0,0,0-1.15-1.36A1.38,1.38,0,0,0,77.79,13Z"/><path class="cls-2" d="M85.85,15.85a2.19,2.19,0,0,1-2.2-2.36A2.25,2.25,0,0,1,85.92,11a2.17,2.17,0,0,1,2.21,2.35,2.25,2.25,0,0,1-2.28,2.45Zm0-.63c.8,0,1.4-.75,1.4-1.79,0-.78-.39-1.76-1.38-1.76s-1.4.91-1.4,1.79.57,1.77,1.38,1.77Z"/><path class="cls-2" d="M89.14,12.39c0-.48,0-.86,0-1.24h.74l0,.75h0A1.7,1.7,0,0,1,91.43,11c.64,0,1.63.38,1.63,2v2.74h-.84V13.09c0-.74-.27-1.37-1.06-1.37a1.21,1.21,0,0,0-1.12.85A1.25,1.25,0,0,0,90,13v2.77h-.83Z"/><path class="cls-2" d="M97.33,10v1.1h1.2v.64h-1.2v2.48c0,.57.16.89.63.89a1.55,1.55,0,0,0,.49-.06l0,.64a2.27,2.27,0,0,1-.74.11,1.19,1.19,0,0,1-.9-.35,1.8,1.8,0,0,1-.32-1.21V11.78h-.71v-.64h.71V10.3Z"/><path class="cls-2" d="M99.42,9h.84v2.87h0a1.48,1.48,0,0,1,.6-.59,1.62,1.62,0,0,1,.85-.24c.62,0,1.6.38,1.6,2v2.73h-.83V13.1c0-.75-.28-1.37-1.06-1.37a1.21,1.21,0,0,0-1.12.84,1,1,0,0,0-.06.4v2.77h-.84Z"/><path class="cls-2" d="M105.12,13.59a1.46,1.46,0,0,0,1.57,1.59A3.17,3.17,0,0,0,108,15l.15.59a3.74,3.74,0,0,1-1.54.29,2.14,2.14,0,0,1-2.26-2.32A2.24,2.24,0,0,1,106.47,11a1.94,1.94,0,0,1,1.89,2.16,2.15,2.15,0,0,1,0,.4Zm2.44-.6a1.19,1.19,0,0,0-1.15-1.36A1.38,1.38,0,0,0,105.13,13Z"/><path class="cls-2" d="M111.71,10.3a.54.54,0,0,1,0-1.07.51.51,0,0,1,.53.53.52.52,0,0,1-.54.54Zm-.4,5.44V11.15h.84v4.59Z"/><path class="cls-2" d="M113.52,9.43a8.58,8.58,0,0,1,1.59-.13,2.62,2.62,0,0,1,1.79.53,1.72,1.72,0,0,1,.57,1.34,1.85,1.85,0,0,1-.5,1.37,2.65,2.65,0,0,1-2,.7,2.91,2.91,0,0,1-.66-.06v2.56h-.83Zm.83,3.08a2.81,2.81,0,0,0,.68.07c1,0,1.6-.49,1.6-1.36S116,10,115.12,10a4.1,4.1,0,0,0-.78.07Z"/><path class="cls-2" d="M118.44,9h.84v2.87h0a1.49,1.49,0,0,1,.6-.59,1.63,1.63,0,0,1,.85-.24c.62,0,1.6.38,1.6,2v2.73h-.83V13.1c0-.75-.28-1.37-1.06-1.37a1.21,1.21,0,0,0-1.12.84,1,1,0,0,0-.06.4v2.77h-.84Z"/><path class="cls-2" d="M125.54,15.85a2.19,2.19,0,0,1-2.2-2.36A2.25,2.25,0,0,1,125.61,11a2.17,2.17,0,0,1,2.21,2.35,2.25,2.25,0,0,1-2.28,2.45Zm0-.63c.8,0,1.4-.75,1.4-1.79,0-.78-.39-1.76-1.38-1.76s-1.41.91-1.41,1.79.57,1.77,1.38,1.77Z"/><path class="cls-2" d="M128.83,12.39c0-.48,0-.86,0-1.24h.74l0,.75h0a1.7,1.7,0,0,1,1.52-.85c.64,0,1.62.38,1.62,2v2.74h-.83V13.09c0-.74-.28-1.37-1.06-1.37a1.2,1.2,0,0,0-1.12.85,1.23,1.23,0,0,0-.06.39v2.77h-.83Z"/><path class="cls-2" d="M134.52,13.59a1.47,1.47,0,0,0,1.57,1.59,3.16,3.16,0,0,0,1.27-.23l.15.59a3.74,3.74,0,0,1-1.54.29,2.14,2.14,0,0,1-2.26-2.32A2.24,2.24,0,0,1,135.88,11a1.94,1.94,0,0,1,1.89,2.16,2.16,2.16,0,0,1,0,.4ZM137,13a1.19,1.19,0,0,0-1.15-1.36A1.38,1.38,0,0,0,134.53,13Z"/><path class="cls-2" d="M51.55,20.08,45.93,36.64H48.5l1.68-5.09h5.45l1.73,5.09H60L54.36,20.08Zm1.34,2.72c.19.74.4,1.51.66,2.34l1.52,4.39H50.75l1.5-4.42C52.47,24.39,52.69,23.62,52.89,22.8Z"/><path class="cls-2" d="M67.29,24.37a4.69,4.69,0,0,0-4,1.91l-.1-1.65H60.92v.21c.07,1,.1,2.16.1,3.78V41.4h2.51v-6A4.4,4.4,0,0,0,67,36.91a5.17,5.17,0,0,0,3.8-1.61,6.85,6.85,0,0,0,1.68-4.82A6.67,6.67,0,0,0,71,26.07,4.77,4.77,0,0,0,67.29,24.37Zm-.62,2.08c2.23,0,3.23,2.07,3.23,4.12,0,2.65-1.28,4.29-3.33,4.29a3,3,0,0,1-3-2.33,3.21,3.21,0,0,1-.09-.81v-2a3.75,3.75,0,0,1,.08-.62l0-.2A3.17,3.17,0,0,1,66.67,26.45Z"/><path class="cls-2" d="M80.2,24.37a4.69,4.69,0,0,0-4,1.91l-.1-1.65H73.82v.21c.07,1,.1,2.16.1,3.78V41.4h2.51v-6a4.4,4.4,0,0,0,3.43,1.47,5.17,5.17,0,0,0,3.8-1.61,6.86,6.86,0,0,0,1.68-4.82,6.67,6.67,0,0,0-1.46-4.4A4.77,4.77,0,0,0,80.2,24.37Zm-.62,2.08c2.23,0,3.23,2.07,3.23,4.12,0,2.65-1.28,4.29-3.33,4.29a3,3,0,0,1-3-2.33,3.21,3.21,0,0,1-.09-.81v-2a3.64,3.64,0,0,1,.08-.62l0-.2A3.17,3.17,0,0,1,79.58,26.45Z"/><path class="cls-2" d="M96.37,27.1c-2.34-.91-3.09-1.62-3.09-2.94,0-1.11.88-2.23,2.85-2.23a5.7,5.7,0,0,1,2.94.74l.21.13.71-2.09-.14-.08a7.26,7.26,0,0,0-3.65-.82c-3.2,0-5.43,1.89-5.43,4.59,0,2.18,1.4,3.7,4.4,4.79,2.13.8,2.92,1.61,2.92,3,0,1.58-1.22,2.56-3.19,2.56a6.86,6.86,0,0,1-3.61-1l-.22-.14-.67,2.14.12.08a8.58,8.58,0,0,0,4.24,1.09c4.31,0,5.84-2.63,5.84-4.88S99.38,28.28,96.37,27.1Z"/><path class="cls-2" d="M105.12,21.78l-2.46.77v2.08h-1.8v2h1.8v6.14a4.69,4.69,0,0,0,.87,3.18,3.21,3.21,0,0,0,2.43,1,5.89,5.89,0,0,0,1.94-.3l.14,0-.12-2-.24.07a3.79,3.79,0,0,1-1.17.13c-1,0-1.39-.62-1.39-2.06V26.64h3v-2h-3Z"/><path class="cls-2" d="M114.35,24.37c-3.51,0-6,2.62-6,6.36s2.37,6.17,5.76,6.17h0c2.87,0,6-2,6-6.39a6.33,6.33,0,0,0-1.6-4.43A5.58,5.58,0,0,0,114.35,24.37Zm-.07,2c2.26,0,3.28,2.2,3.28,4.24,0,2.51-1.4,4.34-3.33,4.34h0c-1.9,0-3.28-1.79-3.28-4.26C110.93,28.52,112,26.35,114.28,26.35Z"/><path class="cls-2" d="M127.82,24.49l-.15,0a2.41,2.41,0,0,0-.62-.08,3.58,3.58,0,0,0-3.14,2l-.07-1.75h-2.25v.21c.07,1,.09,2.11.09,3.61l0,8.19h2.51V30.26a6.56,6.56,0,0,1,.07-1,2.77,2.77,0,0,1,2.64-2.53,6.41,6.41,0,0,1,.67,0l.27,0Z"/><path class="cls-2" d="M133.45,24.35c-3.34,0-5.67,2.67-5.67,6.48s2.32,6.05,5.91,6.05a9.62,9.62,0,0,0,4-.76l.15-.07-.48-1.87-.21.08a7.77,7.77,0,0,1-3.14.56,3.49,3.49,0,0,1-3.75-3.63l8.09,0,0-.16a5.54,5.54,0,0,0,.08-1C138.43,27.4,137.12,24.35,133.45,24.35Zm-.17,1.91a2.47,2.47,0,0,1,1.84.7,3.56,3.56,0,0,1,.86,2.33h-5.72C130.51,27.84,131.41,26.25,133.29,26.25Z"/><path class="cls-2" d="M38.87,31.76a24.49,24.49,0,0,1-2.21,4.13c-1.44,2.19-3.47,4.92-6,4.94-2.23,0-2.81-1.45-5.83-1.44s-3.66,1.46-5.89,1.44c-2.51,0-4.43-2.49-5.87-4.67-4-6.12-4.44-13.31-2-17.13a8.9,8.9,0,0,1,7.16-4.3c2.66,0,4.34,1.46,6.54,1.46s3.44-1.46,6.51-1.46a8.69,8.69,0,0,1,6.55,3.46A7.49,7.49,0,0,0,38.87,31.76Z"/><path class="cls-2" d="M29,12.28a7.47,7.47,0,0,0,1.66-5.53,8.07,8.07,0,0,0-5.21,2.8,6.94,6.94,0,0,0-1.7,5.4A6.81,6.81,0,0,0,29,12.28Z"/></g></g></svg>