<svg xmlns="http://www.w3.org/2000/svg" viewBox="0 0 194.93 63.77"><defs><style>.cls-1{fill:#231f20;}.cls-2{fill:#fff;}</style></defs><title>Zasób 7</title><g id="Warstwa_2" data-name="Warstwa 2"><g id="Layer_1" data-name="Layer 1"><rect class="cls-1" width="194.93" height="63.77" rx="8.62" ry="8.62"/><path class="cls-2" d="M62.61,18.05l-.87,2.65H60.62l2.86-8.41h1.31l2.87,8.41H66.5l-.9-2.65Zm2.76-.85-.84-2.42c-.18-.55-.3-1-.42-1.54h0c-.11.49-.25,1-.41,1.52l-.82,2.43Z"/><path class="cls-2" d="M68.78,14.66,70,18c.2.56.36,1.06.49,1.56h0c.14-.5.31-1,.51-1.56l1.17-3.38h1.15L71,20.7h-1l-2.3-6Z"/><path class="cls-2" d="M78.38,19.25a10.1,10.1,0,0,0,.09,1.45h-1l-.1-.76h0a2.23,2.23,0,0,1-1.85.9,1.72,1.72,0,0,1-1.85-1.73c0-1.46,1.3-2.26,3.63-2.25v-.12a1.24,1.24,0,0,0-1.37-1.4,2.91,2.91,0,0,0-1.59.45L74.07,15a3.92,3.92,0,0,1,2-.52c1.86,0,2.31,1.26,2.31,2.47Zm-1.07-1.64c-1.2,0-2.56.19-2.56,1.36a1,1,0,0,0,1,1,1.53,1.53,0,0,0,1.49-1,1.14,1.14,0,0,0,0-.35Z"/><path class="cls-2" d="M80.6,13.55a.71.71,0,0,1,0-1.41.67.67,0,0,1,.7.7.69.69,0,0,1-.71.71Zm-.52,7.15v-6h1.1v6Z"/><path class="cls-2" d="M82.93,11.84H84V20.7h-1.1Z"/><path class="cls-2" d="M90,19.25a10.17,10.17,0,0,0,.09,1.45h-1l-.1-.76h0a2.23,2.23,0,0,1-1.85.9,1.72,1.72,0,0,1-1.85-1.73c0-1.46,1.3-2.26,3.63-2.25v-.12a1.24,1.24,0,0,0-1.37-1.4,2.9,2.9,0,0,0-1.58.45L85.74,15a3.92,3.92,0,0,1,2-.52C89.6,14.52,90,15.78,90,17ZM89,17.61c-1.2,0-2.56.19-2.56,1.36a1,1,0,0,0,1,1,1.53,1.53,0,0,0,1.49-1,1.12,1.12,0,0,0,.05-.35Z"/><path class="cls-2" d="M91.75,11.84h1.1v3.78h0a2.24,2.24,0,0,1,2.06-1.1c1.5,0,2.55,1.25,2.55,3.07,0,2.17-1.37,3.25-2.72,3.25a2.16,2.16,0,0,1-2-1.14h0l-.06,1H91.7c0-.41,0-1,0-1.56Zm1.1,6.44a2,2,0,0,0,0,.4A1.7,1.7,0,0,0,94.53,20c1.16,0,1.83-.94,1.83-2.32,0-1.22-.62-2.26-1.8-2.26a1.82,1.82,0,0,0-1.72,1.81Z"/><path class="cls-2" d="M98.79,11.84h1.1V20.7h-1.1Z"/><path class="cls-2" d="M102.27,17.86a1.93,1.93,0,0,0,2.06,2.1,4.16,4.16,0,0,0,1.67-.3l.2.77a4.91,4.91,0,0,1-2,.39,2.82,2.82,0,0,1-3-3c0-1.83,1.09-3.27,2.85-3.27a2.55,2.55,0,0,1,2.48,2.85,2.83,2.83,0,0,1,0,.52Zm3.21-.79A1.57,1.57,0,0,0,104,15.29a1.81,1.81,0,0,0-1.68,1.79Z"/><path class="cls-2" d="M112.88,20.84a2.88,2.88,0,0,1-2.9-3.11,3,3,0,0,1,3-3.21,2.86,2.86,0,0,1,2.91,3.1,3,3,0,0,1-3,3.22Zm0-.82c1,0,1.83-1,1.83-2.36,0-1-.51-2.31-1.81-2.31s-1.85,1.2-1.85,2.35c0,1.32.75,2.32,1.81,2.32Z"/><path class="cls-2" d="M117.21,16.29c0-.64,0-1.14-.05-1.64h1l.06,1h0a2.24,2.24,0,0,1,2-1.12c.84,0,2.14.5,2.14,2.57V20.7h-1.1V17.21c0-1-.36-1.8-1.4-1.8a1.59,1.59,0,0,0-1.47,1.12,1.64,1.64,0,0,0-.07.51V20.7h-1.1Z"/><path class="cls-2" d="M128,13.21v1.45h1.57v.84H128v3.26c0,.75.21,1.17.82,1.17a2,2,0,0,0,.64-.08l0,.84a3,3,0,0,1-1,.15,1.57,1.57,0,0,1-1.19-.46,2.37,2.37,0,0,1-.42-1.59v-3.3H126v-.84h.94V13.55Z"/><path class="cls-2" d="M130.72,11.84h1.1v3.77h0a2,2,0,0,1,.79-.77,2.14,2.14,0,0,1,1.12-.31c.81,0,2.11.5,2.11,2.58V20.7h-1.1V17.23c0-1-.36-1.8-1.4-1.8a1.59,1.59,0,0,0-1.47,1.1,1.33,1.33,0,0,0-.08.52V20.7h-1.1Z"/><path class="cls-2" d="M138.21,17.86a1.93,1.93,0,0,0,2.06,2.1,4.17,4.17,0,0,0,1.67-.3l.2.77a4.92,4.92,0,0,1-2,.39,2.82,2.82,0,0,1-3-3c0-1.83,1.09-3.27,2.85-3.27a2.55,2.55,0,0,1,2.48,2.85,2.83,2.83,0,0,1,0,.52Zm3.21-.79a1.57,1.57,0,0,0-1.51-1.79,1.81,1.81,0,0,0-1.69,1.79Z"/><path class="cls-2" d="M146.89,13.55a.7.7,0,0,1,0-1.41.67.67,0,0,1,.7.7.69.69,0,0,1-.71.71Zm-.53,7.15v-6h1.1v6Z"/><path class="cls-2" d="M149.26,12.4a11.29,11.29,0,0,1,2.08-.17,3.45,3.45,0,0,1,2.36.7,2.27,2.27,0,0,1,.75,1.76,2.43,2.43,0,0,1-.66,1.8,3.48,3.48,0,0,1-2.57.92,3.82,3.82,0,0,1-.87-.07V20.7h-1.09Zm1.09,4a3.69,3.69,0,0,0,.9.09c1.32,0,2.11-.65,2.11-1.78s-.79-1.66-2-1.66a5.39,5.39,0,0,0-1,.09Z"/><path class="cls-2" d="M155.74,11.84h1.1v3.77h0a2,2,0,0,1,.79-.77,2.14,2.14,0,0,1,1.12-.31c.81,0,2.11.5,2.11,2.58V20.7h-1.1V17.23c0-1-.36-1.8-1.4-1.8a1.59,1.59,0,0,0-1.47,1.1,1.33,1.33,0,0,0-.07.52V20.7h-1.1Z"/><path class="cls-2" d="M165.06,20.84a2.88,2.88,0,0,1-2.9-3.11,3,3,0,0,1,3-3.21,2.86,2.86,0,0,1,2.91,3.1,3,3,0,0,1-3,3.22Zm0-.82c1,0,1.83-1,1.83-2.36,0-1-.51-2.31-1.81-2.31s-1.85,1.2-1.85,2.35c0,1.32.75,2.32,1.81,2.32Z"/><path class="cls-2" d="M169.39,16.29c0-.64,0-1.14,0-1.64h1l.06,1h0a2.24,2.24,0,0,1,2-1.12c.84,0,2.13.5,2.13,2.57V20.7h-1.1V17.21c0-1-.36-1.8-1.4-1.8a1.58,1.58,0,0,0-1.47,1.12,1.62,1.62,0,0,0-.08.51V20.7h-1.1Z"/><path class="cls-2" d="M176.88,17.86a1.93,1.93,0,0,0,2.06,2.1,4.16,4.16,0,0,0,1.67-.3l.2.77a4.92,4.92,0,0,1-2,.39,2.82,2.82,0,0,1-3-3c0-1.83,1.09-3.27,2.85-3.27a2.55,2.55,0,0,1,2.48,2.85,2.84,2.84,0,0,1,0,.52Zm3.21-.79a1.57,1.57,0,0,0-1.51-1.79,1.81,1.81,0,0,0-1.69,1.79Z"/><path class="cls-2" d="M67.79,26.4l-7.4,21.79h3.39L66,41.49h7.17l2.27,6.69H78.9L71.47,26.4ZM69.54,30c.25,1,.52,2,.87,3.07l2,5.78H66.73l2-5.81C69,32.07,69.28,31.05,69.54,30Z"/><path class="cls-2" d="M88.48,32a6.17,6.17,0,0,0-5.24,2.51l-.13-2.17h-3l0,.28c.09,1.35.13,2.84.13,5V54.43h3.3V46.59A5.79,5.79,0,0,0,88,48.53a6.8,6.8,0,0,0,5-2.12,9,9,0,0,0,2.21-6.34,8.77,8.77,0,0,0-1.92-5.79A6.27,6.27,0,0,0,88.48,32Zm-.82,2.73c2.94,0,4.25,2.72,4.25,5.42,0,3.48-1.68,5.64-4.38,5.64a4,4,0,0,1-3.88-3.06,4.22,4.22,0,0,1-.12-1.07V39.05a4.93,4.93,0,0,1,.11-.81c0-.09,0-.18,0-.27A4.17,4.17,0,0,1,87.66,34.77Z"/><path class="cls-2" d="M105.45,32a6.17,6.17,0,0,0-5.24,2.51l-.13-2.17h-3l0,.28c.09,1.35.13,2.84.13,5V54.43h3.3V46.59a5.78,5.78,0,0,0,4.5,1.94,6.8,6.8,0,0,0,5-2.12,9,9,0,0,0,2.2-6.34,8.77,8.77,0,0,0-1.92-5.79A6.27,6.27,0,0,0,105.45,32Zm-.82,2.73c2.94,0,4.25,2.72,4.25,5.42,0,3.48-1.68,5.64-4.38,5.64a4,4,0,0,1-3.88-3.06,4.23,4.23,0,0,1-.12-1.07V39.05a4.78,4.78,0,0,1,.11-.82l0-.27A4.17,4.17,0,0,1,104.63,34.77Z"/><path class="cls-2" d="M126.72,35.63c-3.08-1.19-4.06-2.13-4.06-3.86,0-1.46,1.16-2.93,3.75-2.93a7.49,7.49,0,0,1,3.87,1l.28.17.93-2.75-.18-.11A9.55,9.55,0,0,0,126.5,26c-4.2,0-7.14,2.48-7.14,6,0,2.86,1.84,4.87,5.79,6.3,2.8,1,3.84,2.12,3.84,4,0,2.08-1.61,3.37-4.19,3.37A9,9,0,0,1,120,44.36l-.29-.18L118.87,47l.16.11a11.29,11.29,0,0,0,5.57,1.43c5.67,0,7.67-3.45,7.67-6.41S130.67,37.19,126.72,35.63Z"/><path class="cls-2" d="M138.21,28.64l-3.23,1v2.74h-2.37V35H135v8.07a6.17,6.17,0,0,0,1.14,4.18,4.23,4.23,0,0,0,3.19,1.25,7.75,7.75,0,0,0,2.55-.39l.18-.07-.16-2.64-.32.1a5,5,0,0,1-1.53.18c-1.28,0-1.82-.81-1.82-2.71V35h4V32.39h-4Z"/><path class="cls-2" d="M150.35,32c-4.61,0-7.83,3.44-7.83,8.37s3.12,8.12,7.58,8.12h0c3.77,0,7.83-2.63,7.83-8.4a8.33,8.33,0,0,0-2.1-5.83A7.33,7.33,0,0,0,150.35,32Zm-.1,2.6c3,0,4.31,2.89,4.31,5.58,0,3.3-1.84,5.7-4.38,5.7h0c-2.5,0-4.31-2.36-4.31-5.61C145.85,37.5,147.21,34.65,150.26,34.65Z"/><path class="cls-2" d="M168.06,32.2l-.2-.05A3.17,3.17,0,0,0,167,32a4.7,4.7,0,0,0-4.13,2.65l-.1-2.31h-3l0,.28c.09,1.3.12,2.77.12,4.75l0,10.77h3.3v-8.4a8.62,8.62,0,0,1,.09-1.28c.37-2,1.73-3.32,3.47-3.32a8.43,8.43,0,0,1,.88.06l.35,0Z"/><path class="cls-2" d="M175.47,32c-4.39,0-7.45,3.51-7.45,8.53,0,4.83,3,8,7.77,8a12.65,12.65,0,0,0,5.22-1l.2-.09L180.57,45l-.28.11a10.21,10.21,0,0,1-4.13.74A4.58,4.58,0,0,1,171.23,41l10.64,0,0-.21a7.29,7.29,0,0,0,.1-1.38C182,36,180.3,32,175.47,32Zm-.22,2.51a3.25,3.25,0,0,1,2.42.92,4.69,4.69,0,0,1,1.13,3.07h-7.52C171.6,36.61,172.79,34.52,175.25,34.52Z"/><path class="cls-2" d="M51.1,41.75a32.2,32.2,0,0,1-2.91,5.44c-1.89,2.88-4.56,6.46-7.86,6.49-2.94,0-3.69-1.91-7.67-1.89s-4.81,1.92-7.75,1.9c-3.3,0-5.83-3.27-7.72-6.15-5.29-8-5.84-17.5-2.58-22.52,2.32-3.57,6-5.66,9.41-5.66s5.7,1.92,8.59,1.92,4.52-1.92,8.56-1.92a11.42,11.42,0,0,1,8.61,4.55C42.23,28.06,43.46,38.86,51.1,41.75Z"/><path class="cls-2" d="M38.12,16.15A9.82,9.82,0,0,0,40.3,8.87a10.61,10.61,0,0,0-6.85,3.69,9.12,9.12,0,0,0-2.24,7.1A9,9,0,0,0,38.12,16.15Z"/></g></g></svg>