<svg xmlns="http://www.w3.org/2000/svg" viewBox="0 0 369 107.99"><defs><style>.cls-1{isolation:isolate;}.cls-2{fill:#fff;}.cls-3{fill:#b3b3b3;fill-rule:evenodd;}</style></defs><title>Zasób 1</title><g id="Warstwa_2" data-name="Warstwa 2"><g id="Prostokąt_1" data-name="Prostokąt 1" class="cls-1"><g id="Prostokąt_1-2" data-name="Prostokąt 1"><rect class="cls-2" width="367" height="106" rx="5" ry="5"/></g></g><g id="helix" class="cls-1"><g id="helix-2" data-name="helix"><path class="cls-3" d="M35.42,31A11.14,11.14,0,1,0,46.67,42.13,11.2,11.2,0,0,0,35.42,31Zm63,5.16v12l10.47,6,10.47-6v-12l-10.47-6Zm-39.3-4.38-6,10.36-6,10.36H71.25l-6-10.36ZM70.53,42.13l12.08,12,12.08-12-12.08-12Zm81.07-2.57H132.14V24.33h-3.9V58.09h3.9V43.23H151.6V58.09h3.9V24.33h-3.9Zm37.13,18.52h3.75V24.33h-3.75ZM201.13,29a2.61,2.61,0,1,0-2.48-2.6A2.49,2.49,0,0,0,201.13,29ZM203,32.67h-3.75V58.09H203Zm27.31,25.42L221.11,45l8.57-12.35h-4.19l-6.92,9.65-6.82-9.65h-4.38L216.09,45l-9.35,13.07H211l7.55-10.37,7.31,10.37ZM180.93,36.34a10.9,10.9,0,0,0-3.7-2.78,12.36,12.36,0,0,0-9.79,0,11.76,11.76,0,0,0-3.83,2.74,12.57,12.57,0,0,0-2.47,4.09,14.08,14.08,0,0,0-.89,5,13.52,13.52,0,0,0,1,5.23,12.36,12.36,0,0,0,2.67,4.07,12.07,12.07,0,0,0,4,2.62,12.79,12.79,0,0,0,4.86.93A13.17,13.17,0,0,0,178.81,57a15.18,15.18,0,0,0,4.28-3.35l-2.31-2a13.12,13.12,0,0,1-3.39,2.52,10.08,10.08,0,0,1-4.55,1,9.29,9.29,0,0,1-3.18-.55,8.81,8.81,0,0,1-2.74-1.59,8.36,8.36,0,0,1-2-2.57,9.7,9.7,0,0,1-1-3.47H183.9a6.56,6.56,0,0,0,0-.74v-.55a16.45,16.45,0,0,0-.77-5.09A12.1,12.1,0,0,0,180.93,36.34ZM164,43.86a10.42,10.42,0,0,1,.89-3.26A9.57,9.57,0,0,1,166.63,38a7.8,7.8,0,0,1,2.51-1.73,7.56,7.56,0,0,1,3-.61,7.84,7.84,0,0,1,3.3.66,7.39,7.39,0,0,1,2.46,1.8,8.84,8.84,0,0,1,1.56,2.63,11.46,11.46,0,0,1,.72,3.14Zm79.85-11.58c0-4,3.59-6.8,8.87-6.8a16.53,16.53,0,0,1,8.62,2.73V25.38a21.33,21.33,0,0,0-8.82-2c-6.67,0-11.23,3.72-11.23,9,0,11.66,19,7.34,19,17.07,0,4.17-3.69,7.1-9,7.1a17.69,17.69,0,0,1-9.44-3.22v2.93a20.88,20.88,0,0,0,9.64,2.43c6.77,0,11.44-3.82,11.44-9.33C262.92,37.54,243.84,41.81,243.84,32.28Zm27.18-6h-2.51v7h-5.23v1.93h5.23V51.88c0,4,3,6.8,7.23,6.8a11.68,11.68,0,0,0,4.82-1.19V55.16a9.82,9.82,0,0,1-4.62,1.49A4.66,4.66,0,0,1,271,51.78V35.21h9.54V33.27H271Zm23,32.41c6.92,0,11.79-5.36,11.79-13s-4.87-13-11.79-13-11.85,5.36-11.85,13S287,58.68,294,58.68Zm0-24c5.38,0,9.18,4.51,9.18,11s-3.8,11-9.18,11-9.23-4.52-9.23-11S288.56,34.71,294,34.71Zm18.67,4.47c2.15-2.78,4.72-4.27,7.33-4.27a8.88,8.88,0,0,1,3,.5V33.07a9.31,9.31,0,0,0-2.77-.4,10.06,10.06,0,0,0-7.54,3.87V33.27h-2.51V58.08h2.51Zm30.57,15a13.92,13.92,0,0,1-7.44,2.43c-5.64,0-9.64-4.32-9.8-10.57h18.77a12.16,12.16,0,0,0,.05-1.39c0-7-3.9-12-10-12-6.72,0-11.44,5.31-11.44,12.8,0,7.74,5,13.2,12.2,13.2a16.78,16.78,0,0,0,7.64-1.94Zm-8.51-19.5c4.46,0,7.49,3.87,7.49,9.38H326C326.31,38.53,329.85,34.71,334.72,34.71Zm-124.26,44a3.26,3.26,0,0,0,2-3.1c0-2.14-1.74-3.7-4.17-3.7H203V85.84h5.68c2.52,0,4.31-1.58,4.31-3.83A3.42,3.42,0,0,0,210.46,78.71ZM205.52,74h2.27a1.91,1.91,0,1,1,0,3.8h-2.27Zm2.58,9.84h-2.58v-4h2.58a2,2,0,0,1,2.21,2A2,2,0,0,1,208.09,83.8Zm21-3.34a3.34,3.34,0,1,1-6.68,0V71.91h-2.66v8.72c0,3.18,2.47,5.44,6,5.44s6-2.27,6-5.44V71.91h-2.68ZM244,77.54l-3.31-5.63h-3l5,8.08v5.85h2.7V80l5-8.08h-3.06Zm30.17,4.07-7-9.7H264.8V85.84h2.51V76.15l7,9.69h2.33V71.91h-2.51Zm16.19-9.94c-4,0-6.87,3-6.87,7.2s2.84,7.21,6.87,7.21,6.87-3,6.87-7.21S294.36,71.67,290.33,71.67Zm0,12.18c-2.43,0-4.11-2.06-4.11-5s1.68-5,4.11-5,4.11,2.06,4.11,5S292.76,83.86,290.33,83.86Zm26.76-1.4-3.31-10.55h-2.41L308,82.46,304.7,71.91H302l4.8,13.93h2.41l3.31-10.54,3.33,10.54h2.41l4.8-13.93h-2.7Zm21.54-9.35a.42.42,0,0,0-.3-.13.41.41,0,0,0-.3.13l-.65.64a.4.4,0,0,0-.13.3.4.4,0,0,0,.13.3l5.12,5.06-5.12,5.07a.4.4,0,0,0-.13.3.4.4,0,0,0,.13.3l.65.64a.41.41,0,0,0,.3.13.42.42,0,0,0,.3-.13l6.06-6a.41.41,0,0,0,0-.59ZM360.21,0H8.79A8.77,8.77,0,0,0,0,8.7V99.29A8.77,8.77,0,0,0,8.79,108H360.21a8.77,8.77,0,0,0,8.79-8.7V8.7A8.77,8.77,0,0,0,360.21,0Zm7,99.29a7,7,0,0,1-7,6.9H8.79a7,7,0,0,1-7-6.9V8.7a7,7,0,0,1,7-6.9H360.21a7,7,0,0,1,7,6.9Z"/></g></g></g></svg>