<svg xmlns="http://www.w3.org/2000/svg" xmlns:xlink="http://www.w3.org/1999/xlink" viewBox="0 0 207.74 61.4"><defs><style>.cls-1{fill:none;}.cls-2{clip-path:url(#clip-path);}.cls-3{fill-rule:evenodd;}</style><clipPath id="clip-path"><rect class="cls-1" width="207.74" height="61.4"/></clipPath></defs><title>Zasób 6</title><g id="Warstwa_2" data-name="Warstwa 2"><g id="Layer_1" data-name="Layer 1"><g class="cls-2"><path d="M202.79,1a3.93,3.93,0,0,1,3.93,3.93v51.5a3.93,3.93,0,0,1-3.93,3.93H4.95A3.93,3.93,0,0,1,1,56.45V4.95A3.93,3.93,0,0,1,4.95,1H202.79m0-1H4.95A5,5,0,0,0,0,4.95v51.5A5,5,0,0,0,4.95,61.4H202.79a5,5,0,0,0,4.95-4.95V4.95A5,5,0,0,0,202.79,0"/><path d="M26.28,24a6.33,6.33,0,1,1-6.33-6.33A6.33,6.33,0,0,1,26.28,24"/><polygon points="67.22 27.36 61.33 30.76 55.43 27.36 55.43 20.55 61.33 17.15 67.22 20.55 67.22 27.36"/><polygon points="33.31 18.06 36.71 23.95 40.11 29.85 33.31 29.85 26.51 29.85 29.91 23.95 33.31 18.06"/><rect x="41.7" y="19.15" width="9.62" height="9.62" transform="translate(-3.32 39.9) rotate(-45)"/><polygon points="85.35 33.03 85.35 24.58 74.39 24.58 74.39 33.03 72.2 33.03 72.2 13.83 74.39 13.83 74.39 22.5 85.35 22.5 85.35 13.83 87.54 13.83 87.54 33.03 85.35 33.03"/><rect x="106.25" y="13.83" width="2.11" height="19.2"/><path d="M114.63,15a1.4,1.4,0,1,1-1.4-1.48,1.41,1.41,0,0,1,1.4,1.48"/><rect x="112.18" y="18.58" width="2.11" height="14.45"/><polygon points="126.95 18.58 129.31 18.58 124.48 25.6 129.66 33.03 127.17 33.03 123.06 27.13 118.8 33.03 116.39 33.03 121.66 25.6 116.75 18.58 119.22 18.58 123.06 24.06 126.95 18.58"/><path d="M92.33,26.64a5.56,5.56,0,0,0,.54,2A4.75,4.75,0,0,0,94,30.08a5,5,0,0,0,1.54.91,5.18,5.18,0,0,0,1.79.31,5.63,5.63,0,0,0,2.56-.54,7.39,7.39,0,0,0,1.91-1.43l1.3,1.16a8.56,8.56,0,0,1-2.41,1.91,7.36,7.36,0,0,1-3.41.72,7.14,7.14,0,0,1-2.73-.53,6.79,6.79,0,0,1-2.25-1.49,7,7,0,0,1-1.5-2.31,7.76,7.76,0,0,1-.55-3,8.07,8.07,0,0,1,.5-2.85,7.16,7.16,0,0,1,1.39-2.33,6.62,6.62,0,0,1,2.16-1.56,6.9,6.9,0,0,1,5.51,0,6.15,6.15,0,0,1,2.09,1.58A6.9,6.9,0,0,1,103.13,23a9.44,9.44,0,0,1,.43,2.89v.31a3.77,3.77,0,0,1,0,.42Zm9.13-1.7a6.57,6.57,0,0,0-.41-1.79,5,5,0,0,0-.88-1.49,4.16,4.16,0,0,0-1.38-1,4.38,4.38,0,0,0-1.86-.38,4.22,4.22,0,0,0-1.71.35,4.39,4.39,0,0,0-1.41,1,5.44,5.44,0,0,0-1,1.49,6,6,0,0,0-.5,1.85Z"/><path d="M136.16,30.32a9.89,9.89,0,0,0,5.31,1.83c3,0,5.08-1.66,5.08-4,0-5.53-10.71-3.08-10.71-9.71,0-3,2.57-5.14,6.32-5.14a11.91,11.91,0,0,1,5,1.16V16a9.24,9.24,0,0,0-4.85-1.55c-3,0-5,1.58-5,3.87,0,5.42,10.74,3,10.74,9.71,0,3.13-2.63,5.3-6.44,5.3A11.66,11.66,0,0,1,136.16,32Z"/><path d="M152.59,18.92H158V20h-5.37v9.42a2.64,2.64,0,0,0,2.77,2.77,5.49,5.49,0,0,0,2.6-.85v1.33a6.52,6.52,0,0,1-2.71.68,3.81,3.81,0,0,1-4.07-3.87V20h-2.95v-1.1h2.95v-4h1.42Z"/><path d="M165.52,18.58c3.9,0,6.64,3,6.64,7.39s-2.74,7.39-6.64,7.39-6.67-3-6.67-7.39,2.74-7.39,6.67-7.39m0,13.63c3,0,5.17-2.57,5.17-6.24s-2.14-6.24-5.17-6.24-5.2,2.57-5.2,6.24,2.14,6.24,5.2,6.24"/><path d="M174.62,18.92H176v1.86a5.65,5.65,0,0,1,4.24-2.2,5.19,5.19,0,0,1,1.56.23v1.33a5,5,0,0,0-1.67-.28A5.36,5.36,0,0,0,176,22.28V33h-1.41Z"/><path d="M188.51,18.58c3.44,0,5.63,2.82,5.63,6.83a7,7,0,0,1,0,.79H183.54c.09,3.56,2.34,6,5.52,6a7.78,7.78,0,0,0,4.19-1.38v1.44a9.37,9.37,0,0,1-4.3,1.1c-4,0-6.87-3.1-6.87-7.51s2.66-7.28,6.44-7.28m4.16,6.49c0-3.13-1.7-5.33-4.22-5.33-2.74,0-4.74,2.17-4.91,5.33Z"/><path d="M114.27,40.89h3A2.16,2.16,0,0,1,119.62,43a1.86,1.86,0,0,1-1.13,1.76,1.94,1.94,0,0,1,1.4,1.88,2.22,2.22,0,0,1-2.43,2.18h-3.2Zm1.44,3.33H117a1.09,1.09,0,1,0,0-2.16h-1.28Zm0,3.43h1.45a1.15,1.15,0,0,0,1.24-1.15,1.13,1.13,0,0,0-1.24-1.14h-1.45Z"/><path d="M130.49,45.85a3.4,3.4,0,0,1-6.77,0v-5h1.5v4.86a1.88,1.88,0,1,0,3.76,0V40.89h1.51Z"/><polygon points="136.59 45.48 133.77 40.89 135.49 40.89 137.35 44.09 139.21 40.89 140.93 40.89 138.11 45.48 138.11 48.81 136.59 48.81 136.59 45.48"/><polygon points="149.08 40.89 150.38 40.89 154.34 46.4 154.34 40.89 155.75 40.89 155.75 48.81 154.44 48.81 150.5 43.3 150.5 48.81 149.08 48.81 149.08 40.89"/><path d="M163.46,40.75a3.83,3.83,0,0,1,3.87,4.1,3.87,3.87,0,1,1-7.73,0,3.83,3.83,0,0,1,3.87-4.1m0,6.93c1.37,0,2.31-1.17,2.31-2.83S164.82,42,163.46,42s-2.31,1.17-2.31,2.83.94,2.83,2.31,2.83"/><polygon points="179.2 48.81 177.84 48.81 175.97 42.81 174.1 48.81 172.74 48.81 170.04 40.89 171.54 40.89 173.42 46.89 175.3 40.89 176.66 40.89 178.52 46.89 180.38 40.89 181.9 40.89 179.2 48.81"/><path class="cls-3" d="M189.87,48.2a.23.23,0,0,1,.07-.17l2.88-2.88-2.88-2.88a.23.23,0,0,1-.07-.17.23.23,0,0,1,.07-.17l.37-.37a.23.23,0,0,1,.17-.07.24.24,0,0,1,.17.07L194.06,45a.23.23,0,0,1,0,.34l-3.41,3.41a.23.23,0,0,1-.17.07.23.23,0,0,1-.17-.07l-.37-.37a.23.23,0,0,1-.07-.17"/></g></g></g></svg>