<svg xmlns="http://www.w3.org/2000/svg" viewBox="0 0 175.5 45.37"><defs><style>.cls-1{fill:#b3b3b3;}.cls-2{font-size:13.62px;font-family:TitilliumWeb-Light, Titillium Web;}.cls-2,.cls-6{fill:#fff;}.cls-3{letter-spacing:-0.01em;}.cls-4{letter-spacing:0em;}.cls-5{letter-spacing:-0.01em;}</style></defs><title>Zasób 3</title><g id="Warstwa_2" data-name="Warstwa 2"><g id="Layer_1" data-name="Layer 1"><path class="cls-1" d="M175.5,39.24c0,3.39-3.47,6.13-7.76,6.13H7.76C3.47,45.37,0,42.62,0,39.24V6.13C0,2.75,3.47,0,7.76,0h160c4.28,0,7.76,2.75,7.76,6.13Z"/><text class="cls-2" transform="translate(23.7 18.5)">Pu<tspan class="cls-3" x="15.23" y="0">r</tspan><tspan class="cls-4" x="19.67" y="0">chase</tspan><tspan class="cls-5" x="-6.92" y="16.34">y</tspan><tspan x="-0.54" y="16.34">our kit on</tspan></text><path class="cls-6" d="M94.17,17.81a4.41,4.41,0,1,1-4.41-4.41,4.41,4.41,0,0,1,4.41,4.41Z"/><polygon class="cls-6" points="103.8 30.35 99.7 32.71 95.61 30.35 95.61 25.61 99.7 23.25 103.8 25.61 103.8 30.35 103.8 30.35"/><polygon class="cls-6" points="99.7 13.71 102.07 17.81 104.44 21.9 99.7 21.9 94.97 21.9 97.34 17.81 99.7 13.71 99.7 13.71"/><polygon class="cls-6" points="89.77 32.71 85.03 27.98 89.77 23.25 94.5 27.98 89.77 32.71 89.77 32.71"/><polygon class="cls-6" points="122.25 32.8 122.25 24.26 111.18 24.26 111.18 32.8 108.96 32.8 108.96 13.4 111.18 13.4 111.18 22.16 122.25 22.16 122.25 13.4 124.46 13.4 124.46 32.8 122.25 32.8 122.25 32.8"/><polygon class="cls-6" points="143.37 32.8 143.37 13.4 145.5 13.4 145.5 32.8 143.37 32.8 143.37 32.8"/><path class="cls-6" d="M151.84,14.59a1.42,1.42,0,1,1-2.83,0,1.42,1.42,0,1,1,2.83,0Z"/><polygon class="cls-6" points="149.36 32.8 149.36 18.19 151.49 18.19 151.49 32.8 149.36 32.8 149.36 32.8"/><polygon class="cls-6" points="164.28 18.19 166.67 18.19 161.79 25.29 167.03 32.8 164.5 32.8 160.35 26.84 156.05 32.8 153.61 32.8 158.94 25.29 153.97 18.19 156.47 18.19 160.35 23.74 164.28 18.19 164.28 18.19"/><path class="cls-6" d="M138.52,24.62a6.61,6.61,0,0,0-.41-1.81,5.09,5.09,0,0,0-.89-1.51,4.19,4.19,0,0,0-1.4-1,4.42,4.42,0,0,0-1.88-.38,4.26,4.26,0,0,0-1.73.35,4.43,4.43,0,0,0-1.43,1,5.5,5.5,0,0,0-1,1.51,6.06,6.06,0,0,0-.51,1.87Zm-9.23,1.72a5.64,5.64,0,0,0,.55,2A4.79,4.79,0,0,0,131,29.81a5,5,0,0,0,1.56.92,5.23,5.23,0,0,0,1.81.31,5.69,5.69,0,0,0,2.59-.55A7.48,7.48,0,0,0,138.85,29l1.31,1.18a8.63,8.63,0,0,1-2.43,1.93,7.44,7.44,0,0,1-3.45.72,7.22,7.22,0,0,1-2.76-.53,6.86,6.86,0,0,1-2.27-1.5,7.13,7.13,0,0,1-1.52-2.34,7.85,7.85,0,0,1-.56-3,8.17,8.17,0,0,1,.51-2.88,7.24,7.24,0,0,1,1.41-2.35,6.7,6.7,0,0,1,2.18-1.57,7,7,0,0,1,5.57,0,6.24,6.24,0,0,1,2.11,1.6,7,7,0,0,1,1.28,2.38,9.54,9.54,0,0,1,.44,2.92v.31a4,4,0,0,1,0,.42Z"/></g></g></svg>