<svg xmlns="http://www.w3.org/2000/svg" viewBox="0 0 444.67 237"><defs><style>.cls-1{fill:#231f20;}.cls-2{fill:#ff5f36;}.cls-3{fill:#e7009b;}.cls-4{fill:#1740ff;}.cls-5{fill:#1cdfed;}</style></defs><title>Zasób 5</title><g id="Warstwa_2" data-name="Warstwa 2"><g id="Layer_1" data-name="Layer 1"><path class="cls-1" d="M190.55,153.73h-10.2V116.65h10.12v2.08q5.25-3,9-3,6.16,0,9.51,3.49a29.07,29.07,0,0,1,12.79-3.49q7.53,0,10.46,4.26t2.93,13.61v20.1h-10.2v-19.8a17.32,17.32,0,0,0-1.07-7q-1.07-2.26-4.26-2.26a21.54,21.54,0,0,0-5.94,1l-1.14.37q.3,5.56.31,8.45v19.21h-10.2V134.67q0-5.49-1-7.75t-4.34-2.26a17.24,17.24,0,0,0-5.86,1l-.91.3Z"/><path class="cls-1" d="M238.84,116.65h10l6.93,28.62h1.75l6.92-28.62h10l-13.39,52.65h-10l4.19-15.57H248.2Z"/><path class="cls-1" d="M305.26,121.66h-12.1v17.72q0,6.38,1,8.38t4.53,2l6.77-.44.38,4.6a53.46,53.46,0,0,1-7.76.82q-5.93,0-8.22-2.82t-2.28-10.75v-19.5h-5.4v-4.82h5.4V105.5h5.63v11.35h12.1Z"/><path class="cls-1" d="M311.86,153.92V116.84h5.63v5A37.58,37.58,0,0,1,331.41,116v5.64a42,42,0,0,0-6.66,1.85,44.81,44.81,0,0,0-5.29,2.22l-1.9,1v27.22Z"/><path class="cls-1" d="M364.65,128v19q.23,2.74,4.41,3.26l-.23,4.38q-6,0-9.06-3a34.22,34.22,0,0,1-13.7,3q-5.25,0-8-2.89t-2.74-8.31q0-5.41,2.81-8t8.83-3.15l11.95-1.11V128q0-3.78-1.67-5.41A6.27,6.27,0,0,0,352.7,121a112.56,112.56,0,0,0-12.63.74l-2.36.22-.23-4.23a78.65,78.65,0,0,1,14.84-1.63q6.47,0,9.4,2.89T364.65,128Zm-23.44,15.13q0,6.82,5.78,6.82a31.51,31.51,0,0,0,10.2-1.71l1.75-.59V135.46l-11.26,1a7.44,7.44,0,0,0-4.95,1.93A6.71,6.71,0,0,0,341.21,143.17Z"/><path class="cls-1" d="M375.27,108.46V102H381v6.45Zm0,45.46V116.84H381v37.08Z"/><path class="cls-1" d="M410.62,121.66h-12.1v17.72q0,6.38,1,8.38t4.53,2l6.77-.44.38,4.6a53.46,53.46,0,0,1-7.76.82q-5.93,0-8.22-2.82t-2.28-10.75v-19.5h-5.4v-4.82h5.4V105.5h5.63v11.35h12.1Z"/><path class="cls-1" d="M430,121.07q-8.3,0-8.29,5.64a3.87,3.87,0,0,0,1.9,3.67q1.9,1.08,8.68,2.22t9.59,3.23q2.81,2.08,2.82,7.79T440.91,152q-3.77,2.67-11,2.67a70.62,70.62,0,0,1-11.11-1l-2.28-.37.3-4.82a99.41,99.41,0,0,0,13.09,1.26,13.41,13.41,0,0,0,6.73-1.37,4.91,4.91,0,0,0,2.32-4.6q0-3.23-2-4.38t-8.68-2.19q-6.7-1-9.51-3T416,126.71q0-5.41,3.92-8a17.34,17.34,0,0,1,9.78-2.6,82.19,82.19,0,0,1,11.64,1l2.13.37-.15,4.75A101.68,101.68,0,0,0,430,121.07Z"/><path class="cls-2" d="M182.07,216.31a4,4,0,0,1-1.18-2.43,31.44,31.44,0,0,1-.23-4.38h2.06a8.46,8.46,0,0,0,2.41,4.78,7.25,7.25,0,0,0,5.23,1.81q5.88,0,5.88-3.9a3,3,0,0,0-1.26-2.46,20.14,20.14,0,0,0-4-2.18l-3.06-1.26a17.79,17.79,0,0,1-5.64-3.5,6.25,6.25,0,0,1-1.88-4.58,6.34,6.34,0,0,1,3.09-5.61,14.63,14.63,0,0,1,8.09-2q6.88,0,9.47,2.35a3.94,3.94,0,0,1,1.18,2.41,31.44,31.44,0,0,1,.24,4.41h-2.06a8.47,8.47,0,0,0-2.41-4.78,7.25,7.25,0,0,0-5.23-1.8,5.67,5.67,0,0,0-3.76,1.06,3.55,3.55,0,0,0-1.24,2.84,3.09,3.09,0,0,0,1,2.38,11.44,11.44,0,0,0,3.15,1.86l3.53,1.43a20.78,20.78,0,0,1,6.26,3.58,6.6,6.6,0,0,1-1.41,10.37,17,17,0,0,1-8.73,2Q184.66,218.66,182.07,216.31Z"/><path class="cls-2" d="M209.79,198.61a9.1,9.1,0,0,0-.79-4.33q-.79-1.4-3.26-1.4h-.59v-1.72H211a7.42,7.42,0,0,1,3.17.54,3.88,3.88,0,0,1,1.76,1.86,11.91,11.91,0,0,1,8-3q5.94,0,9.14,3.92a15.47,15.47,0,0,1,3.21,10.11A15.28,15.28,0,0,1,233,214.74q-3.26,3.93-9.38,3.93a11.91,11.91,0,0,1-4.53-.86,6.63,6.63,0,0,1-1.65-.86v12h-7.64Zm18.52,6a21.29,21.29,0,0,0-1.35-8.37q-1.35-3.09-4.23-3.09a7.9,7.9,0,0,0-5.7,2.35l.18.8a6.32,6.32,0,0,1,.23,1.95v16.1a6.59,6.59,0,0,0,1.41.86,7.63,7.63,0,0,0,3.59.86Q228.31,216.09,228.31,204.63Z"/><path class="cls-2" d="M246.77,216.8a12.66,12.66,0,0,1-4.91-5,15.76,15.76,0,0,1,0-14.27,12.66,12.66,0,0,1,4.91-5,16,16,0,0,1,15,0,12.68,12.68,0,0,1,4.91,5,15.76,15.76,0,0,1,0,14.27,12.67,12.67,0,0,1-4.91,5,16,16,0,0,1-15,0Zm12.08-3.87a22.53,22.53,0,0,0,0-16.62q-1.59-3.15-4.59-3.15t-4.59,3.15a22.53,22.53,0,0,0,0,16.62q1.59,3.15,4.59,3.15T258.85,212.93Z"/><path class="cls-2" d="M293.48,193.37a8.92,8.92,0,0,1,.47.95l-3,2.23a9,9,0,0,0-1.06-1.09,4.38,4.38,0,0,0-3-1.15,7.19,7.19,0,0,0-5.23,1.78l.12.86a16.86,16.86,0,0,1,.12,1.89v19.25h-7.64V198.61a9.1,9.1,0,0,0-.79-4.33q-.79-1.4-3.26-1.4h-.59v-1.72h5.82a8.25,8.25,0,0,1,3.15.49,3.68,3.68,0,0,1,1.79,1.63,11.1,11.1,0,0,1,7.41-2.69,7.15,7.15,0,0,1,4.18,1.15A4.79,4.79,0,0,1,293.48,193.37Z"/><path class="cls-2" d="M302.1,216.52a8.22,8.22,0,0,1-2.23-6.22V193.74h-3.53v-2.58h3.53V186l2.94-3.44h4.7v8.59H314v2.58h-6.47v16.9a8.4,8.4,0,0,0,.77,4.27,2.55,2.55,0,0,0,2.29,1.18,7.94,7.94,0,0,0,3.29-.75q.65-.34,1.35-.8l.82,1.6a14.64,14.64,0,0,1-1.82,1.26,12.66,12.66,0,0,1-5.82,1.26A8.71,8.71,0,0,1,302.1,216.52Z"/><polygon class="cls-2" points="43.49 151.39 132.2 151.39 43.49 237 43.49 151.39"/><polygon class="cls-3" points="95.97 196.46 137.24 156.25 137.24 236.67 95.97 196.46"/><polygon class="cls-4" points="0 54.11 87.32 54.11 87.32 139.2 0 54.11"/><polygon class="cls-5" points="43.49 144.52 43.57 106.75 82.34 144.52 43.49 144.52"/><polygon class="cls-5" points="99.74 53.74 181.46 53.74 140.75 93.71 99.74 53.74"/><polygon class="cls-3" points="94.38 144.52 94.72 58.56 137.24 100 137.24 144.52 94.38 144.52"/><polygon class="cls-5" points="66.46 0 109.97 0 66.46 42.39 66.46 0"/><polygon class="cls-2" points="71.45 47.25 114.95 4.86 114.95 47.25 71.45 47.25"/></g></g></svg>