<svg xmlns="http://www.w3.org/2000/svg" viewBox="0 0 348.34 67.66"><defs><style>.cls-1{fill:#fff;}</style></defs><title>Zasób 4</title><g id="Warstwa_2" data-name="Warstwa 2"><g id="Layer_1" data-name="Layer 1"><polygon class="cls-1" points="11.34 45.26 33.95 45.26 11.34 67.66 11.34 45.26"/><polygon class="cls-1" points="27.02 57.79 36.77 48.04 36.77 67.54 27.02 57.79"/><polygon class="cls-1" points="0 16.18 22.23 16.18 22.23 38.4 0 16.18"/><polygon class="cls-1" points="11.34 41.32 11.36 33.24 19.44 41.32 11.34 41.32"/><polygon class="cls-1" points="29.05 16.07 48.33 16.07 38.73 25.74 29.05 16.07"/><polygon class="cls-1" points="26.16 41.32 26.25 18.83 36.77 29.34 36.77 41.32 26.16 41.32"/><polygon class="cls-1" points="18.03 0 27.49 0 18.03 9.46 18.03 0"/><polygon class="cls-1" points="20.81 12.24 30.28 2.78 30.28 12.24 20.81 12.24"/><path class="cls-1" d="M81.95,52.24h-6V29.84h6v1.25a11.06,11.06,0,0,1,5.29-1.79,7.3,7.3,0,0,1,5.6,2.11,16.77,16.77,0,0,1,7.53-2.11q4.44,0,6.16,2.58t1.73,8.22V52.24h-6v-12a10.72,10.72,0,0,0-.63-4.23,2.48,2.48,0,0,0-2.51-1.37,12.39,12.39,0,0,0-3.49.63l-.67.22q.18,3.36.18,5.11V52.24h-6V40.73A13.19,13.19,0,0,0,88.49,36a2.47,2.47,0,0,0-2.55-1.37,9.92,9.92,0,0,0-3.45.63l-.54.18Z"/><path class="cls-1" d="M110.38,29.84h5.91l4.08,17.3h1l4.08-17.3h5.91l-7.89,31.81h-5.87l2.46-9.41h-4.21Z"/><path class="cls-1" d="M149.49,32.87h-7.12V43.58a14.44,14.44,0,0,0,.56,5.06q.56,1.21,2.67,1.21l4-.27.22,2.78a30.7,30.7,0,0,1-4.57.49q-3.49,0-4.84-1.7T139,44.65V32.87h-3.18V30H139V23.1h3.32V30h7.12Z"/><path class="cls-1" d="M153.37,52.36V30h3.32v3a21.83,21.83,0,0,1,8.2-3.54v3.41A24.21,24.21,0,0,0,161,34a26,26,0,0,0-3.11,1.34l-1.12.58V52.36Z"/><path class="cls-1" d="M184.45,36.72V48.19q.13,1.66,2.6,2l-.13,2.64A7.23,7.23,0,0,1,181.58,51a19.71,19.71,0,0,1-8.06,1.79,6.09,6.09,0,0,1-4.7-1.75,7.14,7.14,0,0,1-1.61-5,6.3,6.3,0,0,1,1.66-4.82,8.79,8.79,0,0,1,5.2-1.9l7-.67V36.72a4.51,4.51,0,0,0-1-3.27,3.63,3.63,0,0,0-2.69-1,64.59,64.59,0,0,0-7.44.45l-1.39.13-.13-2.55a45.17,45.17,0,0,1,8.74-1q3.81,0,5.53,1.75T184.45,36.72Zm-13.8,9.14q0,4.12,3.41,4.12a18.12,18.12,0,0,0,6-1l1-.36V41.2l-6.63.63A4.32,4.32,0,0,0,171.55,43,4.12,4.12,0,0,0,170.65,45.86Z"/><path class="cls-1" d="M190.7,24.89V21h3.36v3.9Zm0,27.47V30h3.36v22.4Z"/><path class="cls-1" d="M211.52,32.87H204.4V43.58a14.44,14.44,0,0,0,.56,5.06q.56,1.21,2.67,1.21l4-.27.22,2.78a30.7,30.7,0,0,1-4.57.49q-3.49,0-4.84-1.7t-1.34-6.5V32.87H197.9V30h3.18V23.1h3.32V30h7.12Z"/><path class="cls-1" d="M222.92,32.51q-4.88,0-4.88,3.41a2.35,2.35,0,0,0,1.12,2.22,19,19,0,0,0,5.11,1.34,13.62,13.62,0,0,1,5.65,1.95q1.66,1.25,1.66,4.7a5.84,5.84,0,0,1-2.22,5.06q-2.22,1.61-6.47,1.61a40.54,40.54,0,0,1-6.54-.63L215,52l.18-2.91a57.07,57.07,0,0,0,7.71.76,7.72,7.72,0,0,0,4-.83,3,3,0,0,0,1.37-2.78A2.82,2.82,0,0,0,227,43.55a17.26,17.26,0,0,0-5.11-1.32,13.49,13.49,0,0,1-5.6-1.84q-1.66-1.21-1.66-4.48A5.44,5.44,0,0,1,217,31.07a10,10,0,0,1,5.76-1.57,47.18,47.18,0,0,1,6.86.63l1.25.22-.09,2.87A58.37,58.37,0,0,0,222.92,32.51Z"/><path class="cls-1" d="M249.37,50.17a3,3,0,0,1-.87-1.85,24.45,24.45,0,0,1-.17-3.32h1.52a6.47,6.47,0,0,0,1.78,3.63A5.27,5.27,0,0,0,255.49,50q4.34,0,4.34-3a2.29,2.29,0,0,0-.93-1.87,14.77,14.77,0,0,0-3-1.65l-2.26-1a13.1,13.1,0,0,1-4.17-2.65,5.08,5.08,0,0,1,.89-7.73,10.59,10.59,0,0,1,6-1.52q5.08,0,7,1.78a3,3,0,0,1,.87,1.82,24.45,24.45,0,0,1,.17,3.35h-1.52A6.48,6.48,0,0,0,261.1,34a5.27,5.27,0,0,0-3.87-1.37,4.11,4.11,0,0,0-2.78.8,2.72,2.72,0,0,0-.91,2.15,2.37,2.37,0,0,0,.76,1.8,8.41,8.41,0,0,0,2.32,1.41l2.61,1.09a15.27,15.27,0,0,1,4.63,2.71,5.08,5.08,0,0,1-1,7.86,12.26,12.26,0,0,1-6.45,1.5Q251.28,51.95,249.37,50.17Z"/><path class="cls-1" d="M269.85,36.75a7.06,7.06,0,0,0-.59-3.28,2.51,2.51,0,0,0-2.41-1.06h-.43V31.1h4.3a5.36,5.36,0,0,1,2.35.41,2.91,2.91,0,0,1,1.3,1.41,8.67,8.67,0,0,1,5.91-2.26,8.13,8.13,0,0,1,6.75,3,11.94,11.94,0,0,1,2.37,7.67A11.79,11.79,0,0,1,287,49a8.4,8.4,0,0,1-6.93,3,8.6,8.6,0,0,1-3.35-.65,4.86,4.86,0,0,1-1.22-.65v9.12h-5.65Zm13.68,4.56a16.53,16.53,0,0,0-1-6.34,3.3,3.3,0,0,0-3.13-2.35,5.76,5.76,0,0,0-4.21,1.78l.13.61a4.91,4.91,0,0,1,.17,1.48V48.69a4.84,4.84,0,0,0,1,.65,5.52,5.52,0,0,0,2.65.65Q283.53,50,283.53,41.31Z"/><path class="cls-1" d="M297.17,50.54a9.49,9.49,0,0,1-3.63-3.82,12.23,12.23,0,0,1,0-10.82,9.49,9.49,0,0,1,3.63-3.82,11.57,11.57,0,0,1,11.08,0,9.5,9.5,0,0,1,3.63,3.82,12.23,12.23,0,0,1,0,10.82,9.5,9.5,0,0,1-3.63,3.82,11.57,11.57,0,0,1-11.08,0Zm8.93-2.93a14.38,14.38,0,0,0,1.17-6.3,14.38,14.38,0,0,0-1.17-6.3,3.6,3.6,0,0,0-6.78,0,14.38,14.38,0,0,0-1.17,6.3,14.38,14.38,0,0,0,1.17,6.3,3.6,3.6,0,0,0,6.78,0Z"/><path class="cls-1" d="M331.67,32.77a6.84,6.84,0,0,1,.35.72l-2.22,1.69a6.77,6.77,0,0,0-.78-.83,3.19,3.19,0,0,0-2.22-.87,5.23,5.23,0,0,0-3.87,1.35l.09.65a13.11,13.11,0,0,1,.09,1.43v14.6h-5.65V36.75a7.06,7.06,0,0,0-.59-3.28,2.51,2.51,0,0,0-2.41-1.06H314V31.1h4.3a6,6,0,0,1,2.32.37A2.75,2.75,0,0,1,322,32.71a8.08,8.08,0,0,1,5.47-2,5.18,5.18,0,0,1,3.08.87A3.6,3.6,0,0,1,331.67,32.77Z"/><path class="cls-1" d="M338,50.32a6.33,6.33,0,0,1-1.65-4.71V33.05h-2.61v-2h2.61V27.19l2.17-2.61H342V31.1h4.78v2H342V45.87a6.51,6.51,0,0,0,.57,3.24,1.87,1.87,0,0,0,1.69.89,5.74,5.74,0,0,0,2.43-.56q.48-.26,1-.61l.61,1.22A10.81,10.81,0,0,1,347,51a9.16,9.16,0,0,1-4.3,1A6.33,6.33,0,0,1,338,50.32Z"/></g></g></svg>